<mxfile host="Electron" agent="Mozilla/5.0 (Macintosh; Intel Mac OS X 10_15_7) AppleWebKit/537.36 (KHTML, like Gecko) draw.io/27.0.9 Chrome/134.0.6998.205 Electron/35.4.0 Safari/537.36" version="27.0.9">
  <diagram name="PÃ¡gina-1" id="csSn5JXQ56xnwb9KgIkt">
    <mxGraphModel dx="1204" dy="717" grid="1" gridSize="10" guides="1" tooltips="1" connect="1" arrows="1" fold="1" page="1" pageScale="1" pageWidth="827" pageHeight="1169" math="0" shadow="0">
      <root>
        <mxCell id="0" />
        <mxCell id="1" parent="0" />
        <mxCell id="Z2nLBiO_sYQ7mt2MAA_f-1" value="" style="shape=image;aspect=fixed;image=data:image/svg+xml,PD94bWwgdmVyc2lvbj0iMS4wIiBlbmNvZGluZz0iaXNvLTg4NTktMSI/Pg0KPCEtLSBVcGxvYWRlZCB0bzogU1ZHIFJlcG8sIHd3dy5zdmdyZXBvLmNvbSwgR2VuZXJhdG9yOiBTVkcgUmVwbyBNaXhlciBUb29scyAtLT4NCjxzdmcgZmlsbD0iIzAwMDAwMCIgaGVpZ2h0PSI4MDBweCIgd2lkdGg9IjgwMHB4IiB2ZXJzaW9uPSIxLjEiIGlkPSJMYXllcl8xIiB4bWxucz0iaHR0cDovL3d3dy53My5vcmcvMjAwMC9zdmciIHhtbG5zOnhsaW5rPSJodHRwOi8vd3d3LnczLm9yZy8xOTk5L3hsaW5rIiANCgkgdmlld0JveD0iMCAwIDQ4OCA0ODgiIHhtbDpzcGFjZT0icHJlc2VydmUiPg0KPGcgdHJhbnNmb3JtPSJ0cmFuc2xhdGUoMCAtNTQwLjM2KSI+DQoJPGc+DQoJCTxnPg0KCQkJPHBhdGggZD0iTTM1MS4xLDg0Ni45NmwtOTcuMS02Ny45di0xMTYuN2MwLTUuNS00LjUtMTAtMTAtMTBzLTEwLDQuNS0xMCwxMHYxMjJjMCwzLjMsMS42LDYuMyw0LjMsOC4ybDEwMS40LDcwLjkNCgkJCQljMS43LDEuMiwzLjcsMS44LDUuNywxLjh2MGMzLjEsMCw2LjItMS41LDguMi00LjRDMzU2LjcsODU2LjM2LDM1NS42LDg1MC4xNiwzNTEuMSw4NDYuOTZ6Ii8+DQoJCQk8cGF0aCBkPSJNNDE2LjQsNjExLjk2TDQxNi40LDYxMS45NmMtNDYuMi00Ni4yLTEwNy40LTcxLjYtMTcyLjQtNzEuNnMtMTI2LjIsMjUuNC0xNzIuNCw3MS42QzI1LjQsNjU4LjE2LDAsNzE5LjM2LDAsNzg0LjM2DQoJCQkJczI1LjQsMTI2LjIsNzEuNiwxNzIuNGM0Ni4yLDQ2LjIsMTA3LjQsNzEuNiwxNzIuNCw3MS42czEyNi4yLTI1LjQsMTcyLjQtNzEuNnM3MS42LTEwNy40LDcxLjYtMTcyLjRTNDYyLjYsNjU4LjE2LDQxNi40LDYxMS45Ng0KCQkJCXogTTI1NCwxMDA4LjE2TDI1NCwxMDA4LjE2di00MC44YzAtNS41LTQuNS0xMC0xMC0xMHMtMTAsNC41LTEwLDEwdjQwLjhjLTExNS42LTUuMS0yMDguNy05OC4yLTIxMy44LTIxMy44SDYxDQoJCQkJYzUuNSwwLDEwLTQuNSwxMC0xMHMtNC41LTEwLTEwLTEwSDIwLjJjNS4xLTExNS42LDk4LjItMjA4LjcsMjEzLjgtMjEzLjh2NDAuOGMwLDUuNSw0LjUsMTAsMTAsMTBzMTAtNC41LDEwLTEwdi00MC44DQoJCQkJYzExNS42LDUuMSwyMDguNyw5OC4yLDIxMy44LDIxMy44SDQyN2MtNS41LDAtMTAsNC41LTEwLDEwczQuNSwxMCwxMCwxMGg0MC44QzQ2Mi43LDkwOS45NiwzNjkuNiwxMDAzLjA2LDI1NCwxMDA4LjE2eiIvPg0KCQk8L2c+DQoJPC9nPg0KPC9nPg0KPC9zdmc+;" parent="1" vertex="1">
          <mxGeometry x="48" y="24" width="40" height="40" as="geometry" />
        </mxCell>
        <mxCell id="Z2nLBiO_sYQ7mt2MAA_f-2" value="&lt;font color=&quot;#7ea6e0&quot; style=&quot;font-size: 43px;&quot;&gt;{&lt;/font&gt;" style="text;strokeColor=none;align=center;fillColor=none;html=1;verticalAlign=middle;whiteSpace=wrap;rounded=0;" parent="1" vertex="1">
          <mxGeometry x="10" y="10" width="63" height="60" as="geometry" />
        </mxCell>
        <mxCell id="Z2nLBiO_sYQ7mt2MAA_f-3" value="&lt;font color=&quot;#7ea6e0&quot; style=&quot;font-size: 43px;&quot;&gt;}&lt;/font&gt;" style="text;strokeColor=none;align=center;fillColor=none;html=1;verticalAlign=middle;whiteSpace=wrap;rounded=0;" parent="1" vertex="1">
          <mxGeometry x="63" y="10" width="63" height="60" as="geometry" />
        </mxCell>
        <mxCell id="Z2nLBiO_sYQ7mt2MAA_f-4" value="&lt;font style=&quot;font-size: 24px;&quot;&gt;&lt;font color=&quot;#7ea6e0&quot;&gt;Open&lt;/font&gt;Simula&lt;/font&gt;" style="text;strokeColor=none;align=center;fillColor=none;html=1;verticalAlign=middle;whiteSpace=wrap;rounded=0;" parent="1" vertex="1">
          <mxGeometry x="88" y="29" width="170" height="30" as="geometry" />
        </mxCell>
        <mxCell id="Z2nLBiO_sYQ7mt2MAA_f-19" value="" style="group" parent="1" vertex="1" connectable="0">
          <mxGeometry x="327.5" y="141" width="20" height="80" as="geometry" />
        </mxCell>
        <mxCell id="Z2nLBiO_sYQ7mt2MAA_f-12" value="" style="rounded=0;whiteSpace=wrap;html=1;" parent="Z2nLBiO_sYQ7mt2MAA_f-19" vertex="1">
          <mxGeometry width="20" height="80" as="geometry" />
        </mxCell>
        <mxCell id="Z2nLBiO_sYQ7mt2MAA_f-13" value="" style="endArrow=none;html=1;rounded=0;entryX=1;entryY=0;entryDx=0;entryDy=0;exitX=0;exitY=1;exitDx=0;exitDy=0;strokeWidth=0.5;" parent="Z2nLBiO_sYQ7mt2MAA_f-19" source="Z2nLBiO_sYQ7mt2MAA_f-12" target="Z2nLBiO_sYQ7mt2MAA_f-12" edge="1">
          <mxGeometry width="50" height="50" relative="1" as="geometry">
            <mxPoint x="13.333333333333332" y="33.33333333333333" as="sourcePoint" />
            <mxPoint x="46.666666666666664" as="targetPoint" />
          </mxGeometry>
        </mxCell>
        <mxCell id="Z2nLBiO_sYQ7mt2MAA_f-18" value="" style="endArrow=none;html=1;rounded=0;entryX=0;entryY=0;entryDx=0;entryDy=0;exitX=1;exitY=1;exitDx=0;exitDy=0;strokeWidth=0.5;" parent="Z2nLBiO_sYQ7mt2MAA_f-19" source="Z2nLBiO_sYQ7mt2MAA_f-12" target="Z2nLBiO_sYQ7mt2MAA_f-12" edge="1">
          <mxGeometry width="50" height="50" relative="1" as="geometry">
            <mxPoint x="140" y="166.66666666666666" as="sourcePoint" />
            <mxPoint x="160" y="86.66666666666666" as="targetPoint" />
          </mxGeometry>
        </mxCell>
        <mxCell id="Z2nLBiO_sYQ7mt2MAA_f-39" value="" style="endArrow=none;html=1;rounded=0;exitX=1;exitY=0.5;exitDx=0;exitDy=0;strokeWidth=2;" parent="Z2nLBiO_sYQ7mt2MAA_f-19" edge="1">
          <mxGeometry width="50" height="50" relative="1" as="geometry">
            <mxPoint x="-20.5" y="39.80000000000001" as="sourcePoint" />
            <mxPoint y="40" as="targetPoint" />
          </mxGeometry>
        </mxCell>
        <mxCell id="Z2nLBiO_sYQ7mt2MAA_f-24" value="" style="group" parent="1" vertex="1" connectable="0">
          <mxGeometry x="297.5" y="141" width="10" height="80" as="geometry" />
        </mxCell>
        <mxCell id="Z2nLBiO_sYQ7mt2MAA_f-21" value="" style="rounded=0;whiteSpace=wrap;html=1;" parent="Z2nLBiO_sYQ7mt2MAA_f-24" vertex="1">
          <mxGeometry width="10" height="80" as="geometry" />
        </mxCell>
        <mxCell id="Z2nLBiO_sYQ7mt2MAA_f-22" value="" style="endArrow=none;html=1;rounded=0;entryX=1;entryY=0;entryDx=0;entryDy=0;exitX=0;exitY=1;exitDx=0;exitDy=0;strokeWidth=0.5;" parent="Z2nLBiO_sYQ7mt2MAA_f-24" source="Z2nLBiO_sYQ7mt2MAA_f-21" target="Z2nLBiO_sYQ7mt2MAA_f-21" edge="1">
          <mxGeometry width="50" height="50" relative="1" as="geometry">
            <mxPoint x="6.666666666666666" y="33.33333333333333" as="sourcePoint" />
            <mxPoint x="23.333333333333332" as="targetPoint" />
          </mxGeometry>
        </mxCell>
        <mxCell id="Z2nLBiO_sYQ7mt2MAA_f-31" value="" style="group" parent="1" vertex="1" connectable="0">
          <mxGeometry x="176.5" y="166" width="30" height="30" as="geometry" />
        </mxCell>
        <mxCell id="Z2nLBiO_sYQ7mt2MAA_f-26" value="" style="whiteSpace=wrap;html=1;aspect=fixed;" parent="Z2nLBiO_sYQ7mt2MAA_f-31" vertex="1">
          <mxGeometry width="30" height="30" as="geometry" />
        </mxCell>
        <mxCell id="Z2nLBiO_sYQ7mt2MAA_f-27" value="" style="ellipse;whiteSpace=wrap;html=1;aspect=fixed;strokeWidth=0.5;" parent="Z2nLBiO_sYQ7mt2MAA_f-31" vertex="1">
          <mxGeometry x="11.25" y="11.25" width="7.5" height="7.5" as="geometry" />
        </mxCell>
        <mxCell id="Z2nLBiO_sYQ7mt2MAA_f-30" value="" style="endArrow=none;html=1;rounded=0;strokeWidth=0.5;" parent="Z2nLBiO_sYQ7mt2MAA_f-31" edge="1">
          <mxGeometry width="50" height="50" relative="1" as="geometry">
            <mxPoint x="7.5" y="22.5" as="sourcePoint" />
            <mxPoint x="22.5" y="7.5" as="targetPoint" />
          </mxGeometry>
        </mxCell>
        <mxCell id="Z2nLBiO_sYQ7mt2MAA_f-32" value="" style="rounded=0;whiteSpace=wrap;html=1;" parent="1" vertex="1">
          <mxGeometry x="631" y="275" width="140" height="130" as="geometry" />
        </mxCell>
        <mxCell id="Z2nLBiO_sYQ7mt2MAA_f-35" value="" style="group" parent="1" vertex="1" connectable="0">
          <mxGeometry x="176.5" y="326" width="30" height="30" as="geometry" />
        </mxCell>
        <mxCell id="Z2nLBiO_sYQ7mt2MAA_f-36" value="" style="whiteSpace=wrap;html=1;aspect=fixed;" parent="Z2nLBiO_sYQ7mt2MAA_f-35" vertex="1">
          <mxGeometry width="30" height="30" as="geometry" />
        </mxCell>
        <mxCell id="Z2nLBiO_sYQ7mt2MAA_f-37" value="" style="ellipse;whiteSpace=wrap;html=1;aspect=fixed;strokeWidth=0.5;" parent="Z2nLBiO_sYQ7mt2MAA_f-35" vertex="1">
          <mxGeometry x="11.25" y="11.25" width="7.5" height="7.5" as="geometry" />
        </mxCell>
        <mxCell id="Z2nLBiO_sYQ7mt2MAA_f-38" value="" style="endArrow=none;html=1;rounded=0;strokeWidth=0.5;" parent="Z2nLBiO_sYQ7mt2MAA_f-35" edge="1">
          <mxGeometry width="50" height="50" relative="1" as="geometry">
            <mxPoint x="7.5" y="22.5" as="sourcePoint" />
            <mxPoint x="22.5" y="7.5" as="targetPoint" />
          </mxGeometry>
        </mxCell>
        <mxCell id="Z2nLBiO_sYQ7mt2MAA_f-40" value="" style="endArrow=none;html=1;rounded=0;strokeWidth=2;entryX=0;entryY=0.5;entryDx=0;entryDy=0;exitX=1;exitY=0.5;exitDx=0;exitDy=0;" parent="1" source="Z2nLBiO_sYQ7mt2MAA_f-67" target="Z2nLBiO_sYQ7mt2MAA_f-21" edge="1">
          <mxGeometry width="50" height="50" relative="1" as="geometry">
            <mxPoint x="237.5" y="181" as="sourcePoint" />
            <mxPoint x="288.5" y="180.60000000000002" as="targetPoint" />
          </mxGeometry>
        </mxCell>
        <mxCell id="Z2nLBiO_sYQ7mt2MAA_f-41" value="" style="endArrow=none;html=1;rounded=0;exitX=1;exitY=0.5;exitDx=0;exitDy=0;strokeWidth=2;entryX=0.048;entryY=0.3;entryDx=0;entryDy=0;entryPerimeter=0;" parent="1" target="Z2nLBiO_sYQ7mt2MAA_f-5" edge="1">
          <mxGeometry width="50" height="50" relative="1" as="geometry">
            <mxPoint x="347.5" y="180.60000000000002" as="sourcePoint" />
            <mxPoint x="381.5" y="181" as="targetPoint" />
          </mxGeometry>
        </mxCell>
        <mxCell id="Z2nLBiO_sYQ7mt2MAA_f-44" value="" style="group" parent="1" vertex="1" connectable="0">
          <mxGeometry x="381.5" y="169" width="46" height="40" as="geometry" />
        </mxCell>
        <mxCell id="Z2nLBiO_sYQ7mt2MAA_f-5" value="" style="ellipse;whiteSpace=wrap;html=1;aspect=fixed;" parent="Z2nLBiO_sYQ7mt2MAA_f-44" vertex="1">
          <mxGeometry width="41.29" height="40" as="geometry" />
        </mxCell>
        <mxCell id="Z2nLBiO_sYQ7mt2MAA_f-7" value="" style="rounded=0;whiteSpace=wrap;html=1;strokeColor=none;" parent="Z2nLBiO_sYQ7mt2MAA_f-44" vertex="1">
          <mxGeometry x="18" width="28" height="20" as="geometry" />
        </mxCell>
        <mxCell id="Z2nLBiO_sYQ7mt2MAA_f-8" value="" style="endArrow=none;html=1;rounded=0;exitX=0;exitY=0;exitDx=0;exitDy=0;" parent="Z2nLBiO_sYQ7mt2MAA_f-44" edge="1">
          <mxGeometry width="50" height="50" relative="1" as="geometry">
            <mxPoint x="17.490000000000066" as="sourcePoint" />
            <mxPoint x="46" as="targetPoint" />
          </mxGeometry>
        </mxCell>
        <mxCell id="Z2nLBiO_sYQ7mt2MAA_f-42" value="" style="endArrow=none;html=1;rounded=0;entryX=1;entryY=0;entryDx=0;entryDy=0;" parent="Z2nLBiO_sYQ7mt2MAA_f-44" target="Z2nLBiO_sYQ7mt2MAA_f-7" edge="1">
          <mxGeometry width="50" height="50" relative="1" as="geometry">
            <mxPoint x="46" y="20" as="sourcePoint" />
            <mxPoint x="94.50999999999993" y="50" as="targetPoint" />
          </mxGeometry>
        </mxCell>
        <mxCell id="Z2nLBiO_sYQ7mt2MAA_f-43" value="" style="endArrow=none;html=1;rounded=0;exitX=1;exitY=0.5;exitDx=0;exitDy=0;" parent="Z2nLBiO_sYQ7mt2MAA_f-44" source="Z2nLBiO_sYQ7mt2MAA_f-5" edge="1">
          <mxGeometry width="50" height="50" relative="1" as="geometry">
            <mxPoint x="46" y="40" as="sourcePoint" />
            <mxPoint x="46" y="20" as="targetPoint" />
          </mxGeometry>
        </mxCell>
        <mxCell id="Z2nLBiO_sYQ7mt2MAA_f-45" value="" style="endArrow=none;html=1;rounded=0;exitX=1;exitY=0.5;exitDx=0;exitDy=0;strokeWidth=2;" parent="1" source="Z2nLBiO_sYQ7mt2MAA_f-71" edge="1">
          <mxGeometry width="50" height="50" relative="1" as="geometry">
            <mxPoint x="427.5" y="180.60000000000002" as="sourcePoint" />
            <mxPoint x="711" y="181" as="targetPoint" />
          </mxGeometry>
        </mxCell>
        <mxCell id="Z2nLBiO_sYQ7mt2MAA_f-46" value="" style="endArrow=none;html=1;rounded=0;strokeWidth=2;entryX=0;entryY=0.5;entryDx=0;entryDy=0;" parent="1" target="em2IbJa_hpGd-PIdW_a4-7" edge="1">
          <mxGeometry width="50" height="50" relative="1" as="geometry">
            <mxPoint x="538" y="181" as="sourcePoint" />
            <mxPoint x="721" y="201" as="targetPoint" />
          </mxGeometry>
        </mxCell>
        <mxCell id="Z2nLBiO_sYQ7mt2MAA_f-53" value="" style="group" parent="1" vertex="1" connectable="0">
          <mxGeometry x="338.5" y="331" width="46" height="40" as="geometry" />
        </mxCell>
        <mxCell id="Z2nLBiO_sYQ7mt2MAA_f-48" value="" style="ellipse;whiteSpace=wrap;html=1;aspect=fixed;" parent="Z2nLBiO_sYQ7mt2MAA_f-53" vertex="1">
          <mxGeometry x="4.7099999999999795" width="41.29" height="40" as="geometry" />
        </mxCell>
        <mxCell id="Z2nLBiO_sYQ7mt2MAA_f-49" value="" style="rounded=0;whiteSpace=wrap;html=1;strokeColor=none;" parent="Z2nLBiO_sYQ7mt2MAA_f-53" vertex="1">
          <mxGeometry width="28" height="20" as="geometry" />
        </mxCell>
        <mxCell id="Z2nLBiO_sYQ7mt2MAA_f-50" value="" style="endArrow=none;html=1;rounded=0;exitX=0;exitY=0;exitDx=0;exitDy=0;" parent="Z2nLBiO_sYQ7mt2MAA_f-53" edge="1">
          <mxGeometry width="50" height="50" relative="1" as="geometry">
            <mxPoint x="28.509999999999934" as="sourcePoint" />
            <mxPoint as="targetPoint" />
          </mxGeometry>
        </mxCell>
        <mxCell id="Z2nLBiO_sYQ7mt2MAA_f-51" value="" style="endArrow=none;html=1;rounded=0;" parent="Z2nLBiO_sYQ7mt2MAA_f-53" edge="1">
          <mxGeometry width="50" height="50" relative="1" as="geometry">
            <mxPoint y="20" as="sourcePoint" />
            <mxPoint as="targetPoint" />
          </mxGeometry>
        </mxCell>
        <mxCell id="Z2nLBiO_sYQ7mt2MAA_f-52" value="" style="endArrow=none;html=1;rounded=0;" parent="Z2nLBiO_sYQ7mt2MAA_f-53" edge="1">
          <mxGeometry width="50" height="50" relative="1" as="geometry">
            <mxPoint x="5" y="20" as="sourcePoint" />
            <mxPoint y="20" as="targetPoint" />
          </mxGeometry>
        </mxCell>
        <mxCell id="Z2nLBiO_sYQ7mt2MAA_f-54" value="" style="endArrow=none;html=1;rounded=0;strokeWidth=2;" parent="1" edge="1">
          <mxGeometry width="50" height="50" relative="1" as="geometry">
            <mxPoint x="293.5000000000058" y="341" as="sourcePoint" />
            <mxPoint x="339" y="341" as="targetPoint" />
          </mxGeometry>
        </mxCell>
        <mxCell id="Z2nLBiO_sYQ7mt2MAA_f-55" value="" style="endArrow=none;html=1;rounded=0;exitX=0.898;exitY=0.245;exitDx=0;exitDy=0;strokeWidth=2;exitPerimeter=0;" parent="1" source="Z2nLBiO_sYQ7mt2MAA_f-48" edge="1">
          <mxGeometry width="50" height="50" relative="1" as="geometry">
            <mxPoint x="453.5" y="341" as="sourcePoint" />
            <mxPoint x="431" y="341" as="targetPoint" />
          </mxGeometry>
        </mxCell>
        <mxCell id="Z2nLBiO_sYQ7mt2MAA_f-56" value="" style="endArrow=none;html=1;rounded=0;strokeWidth=2;exitX=0.5;exitY=1;exitDx=0;exitDy=0;" parent="1" source="Z2nLBiO_sYQ7mt2MAA_f-58" edge="1">
          <mxGeometry width="50" height="50" relative="1" as="geometry">
            <mxPoint x="267.5" y="281" as="sourcePoint" />
            <mxPoint x="262.5" y="341" as="targetPoint" />
          </mxGeometry>
        </mxCell>
        <mxCell id="Z2nLBiO_sYQ7mt2MAA_f-57" value="" style="group" parent="1" vertex="1" connectable="0">
          <mxGeometry x="247.5" y="246" width="30" height="30" as="geometry" />
        </mxCell>
        <mxCell id="Z2nLBiO_sYQ7mt2MAA_f-58" value="" style="whiteSpace=wrap;html=1;aspect=fixed;" parent="Z2nLBiO_sYQ7mt2MAA_f-57" vertex="1">
          <mxGeometry width="30" height="30" as="geometry" />
        </mxCell>
        <mxCell id="Z2nLBiO_sYQ7mt2MAA_f-59" value="" style="ellipse;whiteSpace=wrap;html=1;aspect=fixed;strokeWidth=0.5;" parent="Z2nLBiO_sYQ7mt2MAA_f-57" vertex="1">
          <mxGeometry x="11.25" y="11.25" width="7.5" height="7.5" as="geometry" />
        </mxCell>
        <mxCell id="Z2nLBiO_sYQ7mt2MAA_f-60" value="" style="endArrow=none;html=1;rounded=0;strokeWidth=0.5;" parent="Z2nLBiO_sYQ7mt2MAA_f-57" edge="1">
          <mxGeometry width="50" height="50" relative="1" as="geometry">
            <mxPoint x="7.5" y="22.5" as="sourcePoint" />
            <mxPoint x="22.5" y="7.5" as="targetPoint" />
          </mxGeometry>
        </mxCell>
        <mxCell id="Z2nLBiO_sYQ7mt2MAA_f-62" value="" style="endArrow=none;html=1;rounded=0;strokeWidth=2;exitX=0.5;exitY=1;exitDx=0;exitDy=0;" parent="1" edge="1">
          <mxGeometry width="50" height="50" relative="1" as="geometry">
            <mxPoint x="262.3" y="181" as="sourcePoint" />
            <mxPoint x="262.3" y="246" as="targetPoint" />
          </mxGeometry>
        </mxCell>
        <mxCell id="Z2nLBiO_sYQ7mt2MAA_f-63" value="" style="endArrow=none;html=1;rounded=0;strokeWidth=2;exitX=0;exitY=0.5;exitDx=0;exitDy=0;" parent="1" source="Z2nLBiO_sYQ7mt2MAA_f-36" edge="1">
          <mxGeometry width="50" height="50" relative="1" as="geometry">
            <mxPoint x="247.5" y="431" as="sourcePoint" />
            <mxPoint x="127.5" y="341" as="targetPoint" />
          </mxGeometry>
        </mxCell>
        <mxCell id="Z2nLBiO_sYQ7mt2MAA_f-64" value="" style="endArrow=none;html=1;rounded=0;strokeWidth=2;exitX=0;exitY=0.5;exitDx=0;exitDy=0;" parent="1" source="Z2nLBiO_sYQ7mt2MAA_f-76" edge="1">
          <mxGeometry width="50" height="50" relative="1" as="geometry">
            <mxPoint x="176.5" y="180.8" as="sourcePoint" />
            <mxPoint x="127.5" y="180.8" as="targetPoint" />
          </mxGeometry>
        </mxCell>
        <mxCell id="Z2nLBiO_sYQ7mt2MAA_f-65" value="" style="endArrow=classic;html=1;rounded=0;" parent="1" edge="1">
          <mxGeometry width="50" height="50" relative="1" as="geometry">
            <mxPoint x="87" y="180.8" as="sourcePoint" />
            <mxPoint x="117" y="180.8" as="targetPoint" />
          </mxGeometry>
        </mxCell>
        <mxCell id="Z2nLBiO_sYQ7mt2MAA_f-66" value="" style="endArrow=classic;html=1;rounded=0;" parent="1" edge="1">
          <mxGeometry width="50" height="50" relative="1" as="geometry">
            <mxPoint x="117" y="340.79999999999995" as="sourcePoint" />
            <mxPoint x="87" y="340.79999999999995" as="targetPoint" />
          </mxGeometry>
        </mxCell>
        <mxCell id="Z2nLBiO_sYQ7mt2MAA_f-68" value="" style="endArrow=none;html=1;rounded=0;strokeWidth=2;entryX=0;entryY=0.5;entryDx=0;entryDy=0;exitX=1;exitY=0.5;exitDx=0;exitDy=0;" parent="1" source="Z2nLBiO_sYQ7mt2MAA_f-26" target="Z2nLBiO_sYQ7mt2MAA_f-67" edge="1">
          <mxGeometry width="50" height="50" relative="1" as="geometry">
            <mxPoint x="206.5" y="181" as="sourcePoint" />
            <mxPoint x="297.5" y="181" as="targetPoint" />
          </mxGeometry>
        </mxCell>
        <mxCell id="Z2nLBiO_sYQ7mt2MAA_f-67" value="" style="ellipse;whiteSpace=wrap;html=1;aspect=fixed;strokeWidth=0.5;fillColor=#dae8fc;strokeColor=#6c8ebf;" parent="1" vertex="1">
          <mxGeometry x="267.5" y="176" width="10" height="10" as="geometry" />
        </mxCell>
        <mxCell id="Z2nLBiO_sYQ7mt2MAA_f-69" value="&lt;font style=&quot;font-size: 10px;&quot;&gt;Mixed Air&lt;/font&gt;&lt;div&gt;&lt;font style=&quot;font-size: 10px;&quot;&gt;( MA )&lt;/font&gt;&lt;/div&gt;" style="text;strokeColor=none;align=center;fillColor=none;html=1;verticalAlign=middle;whiteSpace=wrap;rounded=0;" parent="1" vertex="1">
          <mxGeometry x="238.5" y="141" width="60" height="30" as="geometry" />
        </mxCell>
        <mxCell id="Z2nLBiO_sYQ7mt2MAA_f-70" value="" style="ellipse;whiteSpace=wrap;html=1;aspect=fixed;strokeWidth=0.5;fillColor=#dae8fc;strokeColor=#6c8ebf;" parent="1" vertex="1">
          <mxGeometry x="362.5" y="176" width="10" height="10" as="geometry" />
        </mxCell>
        <mxCell id="Z2nLBiO_sYQ7mt2MAA_f-72" value="" style="endArrow=none;html=1;rounded=0;exitX=1;exitY=0.5;exitDx=0;exitDy=0;strokeWidth=2;" parent="1" target="Z2nLBiO_sYQ7mt2MAA_f-71" edge="1">
          <mxGeometry width="50" height="50" relative="1" as="geometry">
            <mxPoint x="427.5" y="180.60000000000002" as="sourcePoint" />
            <mxPoint x="567.5" y="181" as="targetPoint" />
          </mxGeometry>
        </mxCell>
        <mxCell id="Z2nLBiO_sYQ7mt2MAA_f-71" value="" style="ellipse;whiteSpace=wrap;html=1;aspect=fixed;strokeWidth=0.5;fillColor=#dae8fc;strokeColor=#6c8ebf;" parent="1" vertex="1">
          <mxGeometry x="461.5" y="176" width="10" height="10" as="geometry" />
        </mxCell>
        <mxCell id="Z2nLBiO_sYQ7mt2MAA_f-73" value="" style="ellipse;whiteSpace=wrap;html=1;aspect=fixed;strokeWidth=0.5;fillColor=#dae8fc;strokeColor=#6c8ebf;" parent="1" vertex="1">
          <mxGeometry x="681" y="375" width="10" height="10" as="geometry" />
        </mxCell>
        <mxCell id="Z2nLBiO_sYQ7mt2MAA_f-75" value="" style="endArrow=none;html=1;rounded=0;strokeWidth=2;" parent="1" target="Z2nLBiO_sYQ7mt2MAA_f-74" edge="1">
          <mxGeometry width="50" height="50" relative="1" as="geometry">
            <mxPoint x="207.5" y="341" as="sourcePoint" />
            <mxPoint x="407.5" y="341.4" as="targetPoint" />
          </mxGeometry>
        </mxCell>
        <mxCell id="Z2nLBiO_sYQ7mt2MAA_f-74" value="" style="ellipse;whiteSpace=wrap;html=1;aspect=fixed;strokeWidth=0.5;fillColor=#dae8fc;strokeColor=#6c8ebf;" parent="1" vertex="1">
          <mxGeometry x="285.5" y="336" width="10" height="10" as="geometry" />
        </mxCell>
        <mxCell id="Z2nLBiO_sYQ7mt2MAA_f-77" value="" style="endArrow=none;html=1;rounded=0;strokeWidth=2;exitX=0;exitY=0.5;exitDx=0;exitDy=0;" parent="1" target="Z2nLBiO_sYQ7mt2MAA_f-76" edge="1">
          <mxGeometry width="50" height="50" relative="1" as="geometry">
            <mxPoint x="176.5" y="180.8" as="sourcePoint" />
            <mxPoint x="127.5" y="180.8" as="targetPoint" />
          </mxGeometry>
        </mxCell>
        <mxCell id="Z2nLBiO_sYQ7mt2MAA_f-76" value="" style="ellipse;whiteSpace=wrap;html=1;aspect=fixed;strokeWidth=0.5;fillColor=#dae8fc;strokeColor=#6c8ebf;" parent="1" vertex="1">
          <mxGeometry x="133.5" y="176" width="10" height="10" as="geometry" />
        </mxCell>
        <mxCell id="Z2nLBiO_sYQ7mt2MAA_f-78" value="&lt;font style=&quot;font-size: 10px;&quot;&gt;Outdoor Air&lt;/font&gt;&lt;div&gt;&lt;font style=&quot;font-size: 10px;&quot;&gt;( OA )&lt;/font&gt;&lt;/div&gt;" style="text;strokeColor=none;align=center;fillColor=none;html=1;verticalAlign=middle;whiteSpace=wrap;rounded=0;" parent="1" vertex="1">
          <mxGeometry x="108.5" y="141" width="60" height="30" as="geometry" />
        </mxCell>
        <mxCell id="Z2nLBiO_sYQ7mt2MAA_f-79" value="&lt;font style=&quot;font-size: 10px;&quot;&gt;Zone Air 2&lt;/font&gt;&lt;div&gt;&lt;font style=&quot;font-size: 10px;&quot;&gt;( ZA2 )&lt;/font&gt;&lt;/div&gt;" style="text;strokeColor=none;align=center;fillColor=none;html=1;verticalAlign=middle;whiteSpace=wrap;rounded=0;" parent="1" vertex="1">
          <mxGeometry x="656" y="340" width="60" height="30" as="geometry" />
        </mxCell>
        <mxCell id="Z2nLBiO_sYQ7mt2MAA_f-80" value="&lt;font style=&quot;font-size: 10px;&quot;&gt;Supply Air&lt;/font&gt;&lt;div&gt;&lt;font style=&quot;font-size: 10px;&quot;&gt;( SA )&lt;/font&gt;&lt;/div&gt;" style="text;strokeColor=none;align=center;fillColor=none;html=1;verticalAlign=middle;whiteSpace=wrap;rounded=0;" parent="1" vertex="1">
          <mxGeometry x="436.5" y="141" width="60" height="30" as="geometry" />
        </mxCell>
        <mxCell id="Z2nLBiO_sYQ7mt2MAA_f-81" value="&lt;font style=&quot;font-size: 10px;&quot;&gt;Return Air&lt;/font&gt;&lt;div&gt;&lt;font style=&quot;font-size: 10px;&quot;&gt;( RA )&lt;/font&gt;&lt;/div&gt;" style="text;strokeColor=none;align=center;fillColor=none;html=1;verticalAlign=middle;whiteSpace=wrap;rounded=0;" parent="1" vertex="1">
          <mxGeometry x="267.5" y="301" width="60" height="30" as="geometry" />
        </mxCell>
        <mxCell id="Z2nLBiO_sYQ7mt2MAA_f-82" value="" style="endArrow=classic;html=1;rounded=0;" parent="1" edge="1">
          <mxGeometry width="50" height="50" relative="1" as="geometry">
            <mxPoint x="709" y="282" as="sourcePoint" />
            <mxPoint x="709" y="307" as="targetPoint" />
          </mxGeometry>
        </mxCell>
        <mxCell id="Z2nLBiO_sYQ7mt2MAA_f-83" value="" style="endArrow=classic;html=1;rounded=0;" parent="1" edge="1">
          <mxGeometry width="50" height="50" relative="1" as="geometry">
            <mxPoint x="666" y="384.30999999999995" as="sourcePoint" />
            <mxPoint x="636" y="384.30999999999995" as="targetPoint" />
          </mxGeometry>
        </mxCell>
        <mxCell id="Z2nLBiO_sYQ7mt2MAA_f-84" value="&lt;font style=&quot;font-size: 10px;&quot;&gt;Coil Outlet Air&lt;/font&gt;&lt;div&gt;&lt;font style=&quot;font-size: 10px;&quot;&gt;( CA )&lt;/font&gt;&lt;/div&gt;" style="text;strokeColor=none;align=center;fillColor=none;html=1;verticalAlign=middle;whiteSpace=wrap;rounded=0;" parent="1" vertex="1">
          <mxGeometry x="347.5" y="141" width="70" height="30" as="geometry" />
        </mxCell>
        <mxCell id="Z2nLBiO_sYQ7mt2MAA_f-85" value="&lt;font style=&quot;font-size: 10px;&quot;&gt;&lt;span style=&quot;&quot;&gt;Return&amp;nbsp;&lt;/span&gt;&lt;/font&gt;&lt;div&gt;&lt;font style=&quot;font-size: 10px;&quot;&gt;&lt;span style=&quot;&quot;&gt;Fan&lt;/span&gt;&lt;/font&gt;&lt;/div&gt;" style="text;strokeColor=none;align=center;fillColor=none;html=1;verticalAlign=middle;whiteSpace=wrap;rounded=0;fontStyle=2" parent="1" vertex="1">
          <mxGeometry x="331.5" y="375" width="60" height="30" as="geometry" />
        </mxCell>
        <mxCell id="Z2nLBiO_sYQ7mt2MAA_f-86" value="&lt;span style=&quot;font-size: 10px;&quot;&gt;Supply&lt;/span&gt;&lt;br&gt;&lt;div&gt;&lt;font style=&quot;font-size: 10px;&quot;&gt;&lt;span style=&quot;&quot;&gt;Fan&lt;/span&gt;&lt;/font&gt;&lt;/div&gt;" style="text;strokeColor=none;align=center;fillColor=none;html=1;verticalAlign=middle;whiteSpace=wrap;rounded=0;fontStyle=2" parent="1" vertex="1">
          <mxGeometry x="372.5" y="216" width="60" height="30" as="geometry" />
        </mxCell>
        <mxCell id="Z2nLBiO_sYQ7mt2MAA_f-87" value="&lt;span style=&quot;font-size: 10px;&quot;&gt;Cooling&lt;/span&gt;&lt;div&gt;&lt;span style=&quot;font-size: 10px;&quot;&gt;Coil&lt;/span&gt;&lt;/div&gt;" style="text;strokeColor=none;align=center;fillColor=none;html=1;verticalAlign=middle;whiteSpace=wrap;rounded=0;fontStyle=2" parent="1" vertex="1">
          <mxGeometry x="307.5" y="101" width="60" height="30" as="geometry" />
        </mxCell>
        <mxCell id="Z2nLBiO_sYQ7mt2MAA_f-88" value="&lt;span style=&quot;font-size: 10px;&quot;&gt;Heating&lt;/span&gt;&lt;br&gt;&lt;div&gt;&lt;span style=&quot;font-size: 10px;&quot;&gt;Coil&lt;/span&gt;&lt;/div&gt;" style="text;strokeColor=none;align=center;fillColor=none;html=1;verticalAlign=middle;whiteSpace=wrap;rounded=0;fontStyle=2" parent="1" vertex="1">
          <mxGeometry x="267.5" y="101" width="60" height="30" as="geometry" />
        </mxCell>
        <mxCell id="Z2nLBiO_sYQ7mt2MAA_f-89" value="&lt;span style=&quot;font-size: 10px;&quot;&gt;Relief Air&lt;/span&gt;&lt;br&gt;&lt;div&gt;&lt;span style=&quot;font-size: 10px;&quot;&gt;Damper&lt;/span&gt;&lt;/div&gt;" style="text;strokeColor=none;align=center;fillColor=none;html=1;verticalAlign=middle;whiteSpace=wrap;rounded=0;fontStyle=2" parent="1" vertex="1">
          <mxGeometry x="161.5" y="361" width="60" height="30" as="geometry" />
        </mxCell>
        <mxCell id="Z2nLBiO_sYQ7mt2MAA_f-90" value="&lt;span style=&quot;font-size: 10px;&quot;&gt;Bypass&lt;/span&gt;&lt;br&gt;&lt;div&gt;&lt;span style=&quot;font-size: 10px;&quot;&gt;Damper&lt;/span&gt;&lt;/div&gt;" style="text;strokeColor=none;align=center;fillColor=none;html=1;verticalAlign=middle;whiteSpace=wrap;rounded=0;fontStyle=2" parent="1" vertex="1">
          <mxGeometry x="277.5" y="246" width="60" height="30" as="geometry" />
        </mxCell>
        <mxCell id="Z2nLBiO_sYQ7mt2MAA_f-91" value="&lt;span style=&quot;font-size: 10px;&quot;&gt;Outdoor Air&lt;/span&gt;&lt;br&gt;&lt;div&gt;&lt;span style=&quot;font-size: 10px;&quot;&gt;Damper&lt;/span&gt;&lt;/div&gt;" style="text;strokeColor=none;align=center;fillColor=none;html=1;verticalAlign=middle;whiteSpace=wrap;rounded=0;fontStyle=2" parent="1" vertex="1">
          <mxGeometry x="168.5" y="131" width="60" height="30" as="geometry" />
        </mxCell>
        <mxCell id="em2IbJa_hpGd-PIdW_a4-1" value="" style="rounded=0;whiteSpace=wrap;html=1;" vertex="1" parent="1">
          <mxGeometry x="457.5" y="276" width="140" height="130" as="geometry" />
        </mxCell>
        <mxCell id="em2IbJa_hpGd-PIdW_a4-2" value="" style="ellipse;whiteSpace=wrap;html=1;aspect=fixed;strokeWidth=0.5;fillColor=#dae8fc;strokeColor=#6c8ebf;" vertex="1" parent="1">
          <mxGeometry x="507.5" y="376" width="10" height="10" as="geometry" />
        </mxCell>
        <mxCell id="em2IbJa_hpGd-PIdW_a4-3" value="&lt;font style=&quot;font-size: 10px;&quot;&gt;Zone Air 1&lt;/font&gt;&lt;div&gt;&lt;font style=&quot;font-size: 10px;&quot;&gt;( ZA1 )&lt;/font&gt;&lt;/div&gt;" style="text;strokeColor=none;align=center;fillColor=none;html=1;verticalAlign=middle;whiteSpace=wrap;rounded=0;" vertex="1" parent="1">
          <mxGeometry x="482.5" y="341" width="60" height="30" as="geometry" />
        </mxCell>
        <mxCell id="em2IbJa_hpGd-PIdW_a4-4" value="" style="endArrow=classic;html=1;rounded=0;" edge="1" parent="1">
          <mxGeometry width="50" height="50" relative="1" as="geometry">
            <mxPoint x="537.5" y="284" as="sourcePoint" />
            <mxPoint x="537.5" y="309" as="targetPoint" />
          </mxGeometry>
        </mxCell>
        <mxCell id="em2IbJa_hpGd-PIdW_a4-5" value="" style="endArrow=classic;html=1;rounded=0;" edge="1" parent="1">
          <mxGeometry width="50" height="50" relative="1" as="geometry">
            <mxPoint x="492.5" y="385.30999999999995" as="sourcePoint" />
            <mxPoint x="462.5" y="385.30999999999995" as="targetPoint" />
          </mxGeometry>
        </mxCell>
        <mxCell id="em2IbJa_hpGd-PIdW_a4-7" value="" style="rounded=0;whiteSpace=wrap;html=1;rotation=90;strokeColor=#999999;" vertex="1" parent="1">
          <mxGeometry x="532.5" y="221" width="11.75" height="40" as="geometry" />
        </mxCell>
        <mxCell id="em2IbJa_hpGd-PIdW_a4-8" value="" style="endArrow=none;html=1;rounded=0;entryX=1;entryY=0;entryDx=0;entryDy=0;exitX=0;exitY=1;exitDx=0;exitDy=0;strokeWidth=0.5;strokeColor=#999999;" edge="1" parent="1" source="em2IbJa_hpGd-PIdW_a4-7" target="em2IbJa_hpGd-PIdW_a4-7">
          <mxGeometry width="50" height="50" relative="1" as="geometry">
            <mxPoint x="402.405" y="487.13" as="sourcePoint" />
            <mxPoint x="460.98" y="497.13" as="targetPoint" />
          </mxGeometry>
        </mxCell>
        <mxCell id="em2IbJa_hpGd-PIdW_a4-10" value="" style="rounded=0;whiteSpace=wrap;html=1;rotation=90;strokeColor=#999999;" vertex="1" parent="1">
          <mxGeometry x="703.125" y="220.995" width="11.75" height="40" as="geometry" />
        </mxCell>
        <mxCell id="em2IbJa_hpGd-PIdW_a4-11" value="" style="endArrow=none;html=1;rounded=0;entryX=1;entryY=0;entryDx=0;entryDy=0;exitX=0;exitY=1;exitDx=0;exitDy=0;strokeWidth=0.5;strokeColor=#999999;" edge="1" parent="1" source="em2IbJa_hpGd-PIdW_a4-10" target="em2IbJa_hpGd-PIdW_a4-10">
          <mxGeometry width="50" height="50" relative="1" as="geometry">
            <mxPoint x="573.03" y="487.125" as="sourcePoint" />
            <mxPoint x="631.605" y="497.125" as="targetPoint" />
          </mxGeometry>
        </mxCell>
        <mxCell id="em2IbJa_hpGd-PIdW_a4-12" value="" style="endArrow=none;html=1;rounded=0;strokeWidth=2;exitX=1;exitY=0.5;exitDx=0;exitDy=0;" edge="1" parent="1" source="em2IbJa_hpGd-PIdW_a4-7">
          <mxGeometry width="50" height="50" relative="1" as="geometry">
            <mxPoint x="591" y="251" as="sourcePoint" />
            <mxPoint x="538" y="276" as="targetPoint" />
          </mxGeometry>
        </mxCell>
        <mxCell id="em2IbJa_hpGd-PIdW_a4-13" value="" style="endArrow=none;html=1;rounded=0;strokeWidth=2;entryX=0.028;entryY=0.455;entryDx=0;entryDy=0;entryPerimeter=0;" edge="1" parent="1">
          <mxGeometry width="50" height="50" relative="1" as="geometry">
            <mxPoint x="710" y="181" as="sourcePoint" />
            <mxPoint x="709.8" y="235.44900000000013" as="targetPoint" />
          </mxGeometry>
        </mxCell>
        <mxCell id="em2IbJa_hpGd-PIdW_a4-14" value="" style="endArrow=none;html=1;rounded=0;strokeWidth=2;entryX=0.559;entryY=0.002;entryDx=0;entryDy=0;exitX=1;exitY=0.5;exitDx=0;exitDy=0;entryPerimeter=0;" edge="1" parent="1" source="em2IbJa_hpGd-PIdW_a4-10" target="Z2nLBiO_sYQ7mt2MAA_f-32">
          <mxGeometry width="50" height="50" relative="1" as="geometry">
            <mxPoint x="621" y="241" as="sourcePoint" />
            <mxPoint x="621" y="295" as="targetPoint" />
          </mxGeometry>
        </mxCell>
        <mxCell id="em2IbJa_hpGd-PIdW_a4-15" value="" style="endArrow=none;html=1;rounded=0;strokeWidth=2;exitX=-0.002;exitY=0.829;exitDx=0;exitDy=0;exitPerimeter=0;" edge="1" parent="1" source="em2IbJa_hpGd-PIdW_a4-1">
          <mxGeometry width="50" height="50" relative="1" as="geometry">
            <mxPoint x="521" y="441" as="sourcePoint" />
            <mxPoint x="431" y="384" as="targetPoint" />
          </mxGeometry>
        </mxCell>
        <mxCell id="em2IbJa_hpGd-PIdW_a4-16" value="" style="endArrow=none;html=1;rounded=0;strokeWidth=2;" edge="1" parent="1">
          <mxGeometry width="50" height="50" relative="1" as="geometry">
            <mxPoint x="431" y="341" as="sourcePoint" />
            <mxPoint x="431" y="441" as="targetPoint" />
          </mxGeometry>
        </mxCell>
        <mxCell id="em2IbJa_hpGd-PIdW_a4-17" value="" style="endArrow=none;html=1;rounded=0;strokeWidth=2;" edge="1" parent="1">
          <mxGeometry width="50" height="50" relative="1" as="geometry">
            <mxPoint x="431" y="441" as="sourcePoint" />
            <mxPoint x="611" y="441" as="targetPoint" />
          </mxGeometry>
        </mxCell>
        <mxCell id="em2IbJa_hpGd-PIdW_a4-18" value="" style="endArrow=none;html=1;rounded=0;strokeWidth=2;exitX=-0.002;exitY=0.829;exitDx=0;exitDy=0;exitPerimeter=0;" edge="1" parent="1">
          <mxGeometry width="50" height="50" relative="1" as="geometry">
            <mxPoint x="631" y="385" as="sourcePoint" />
            <mxPoint x="611" y="385" as="targetPoint" />
          </mxGeometry>
        </mxCell>
        <mxCell id="em2IbJa_hpGd-PIdW_a4-19" value="" style="endArrow=none;html=1;rounded=0;strokeWidth=2;" edge="1" parent="1">
          <mxGeometry width="50" height="50" relative="1" as="geometry">
            <mxPoint x="611" y="384" as="sourcePoint" />
            <mxPoint x="611" y="441" as="targetPoint" />
          </mxGeometry>
        </mxCell>
        <mxCell id="em2IbJa_hpGd-PIdW_a4-20" value="&lt;span style=&quot;font-size: 10px;&quot;&gt;Reheat coils&lt;/span&gt;" style="text;strokeColor=none;align=center;fillColor=none;html=1;verticalAlign=middle;whiteSpace=wrap;rounded=0;fontStyle=2" vertex="1" parent="1">
          <mxGeometry x="596" y="226" width="60" height="30" as="geometry" />
        </mxCell>
      </root>
    </mxGraphModel>
  </diagram>
</mxfile>
